<svg version="1" xmlns="http://www.w3.org/2000/svg" width="716" height="716" viewBox="0 0 537.000000 537.000000"><path d="M264.6 26.1c-1.5.4-4.9 1-7.4 1.3-2.6.3-6 .8-7.7 1.2-1.6.3-3.9.7-5 .9-1.1.1-3.1.5-4.5.8-1.4.3-4.2.9-6.2 1.2-9.7 1.4-11.5 1.7-14.3 2.6-1.6.6-5 1.2-7.5 1.5-2.5.3-5.6.9-7 1.4-1.4.5-5 1.1-8 1.4-3 .3-6.6.8-8 1.1-1.4.2-4.1.8-6 1.1-1.9.4-4.4.8-5.5 1.1-1.1.2-3.5.6-5.4.9-1.9.3-6.4 1.2-10 2-3.6.8-7.9 1.7-9.6 2-14.2 2.3-22.3 3.8-23.8 4.6-2.6 1.3-5.2 1.8-13.7 2.4-4.1.2-9.1 1-11 1.6-1.9.6-4.2 1.3-5 1.4-.8.1-3.1.5-5 .9-1.9.3-8 1.5-13.5 2.5-14.8 2.7-15.9 3-17.4 4.5-1.9 1.9-2.8 8-2.5 16.6.2 4.1.5 20 .8 35.4.7 37.2 1.5 52.1 2.7 54.9.7 1.5.7 4 .1 7.7-.9 5-.8 20.9.3 35.9.2 3.6.6 14.4.9 24.2.3 11.7.9 18.3 1.7 19.6 1 1.6 1 2.6.1 4.6-.7 1.5-.7 2.8-.2 3.1.5.3.6 1.6.2 2.8-.5 1.2-.7 3.3-.6 4.7.1 1.4.5 10.4.8 20 .4 9.6 1.1 27.4 1.6 39.4s.7 22.2.5 22.6c-.3.5-3.6 1.7-7.4 2.9-6.5 2-7 2.3-8.5 6.2-1 2.4-2.5 4.3-3.7 4.6-1.1.3-3.9 1.5-6.1 2.7-3.6 1.8-4.4 2.9-6.3 8.3-4.3 12-9.7 16.6-25.3 21.5l-9.5 2.9.5 12.8c.7 19.2-2.2 16.7 37.8 32.6 18.4 7.2 41.4 16.2 51 20 9.6 3.7 24.9 9.6 34 13.2 9.1 3.5 21.2 8.2 27 10.4 5.8 2.3 15 5.8 20.5 8 5.5 2.1 21 8.2 34.5 13.4 13.5 5.3 26.1 10.4 28 11.5 1.9 1 8.1 3.3 13.7 5l10.2 3.2 8.8-3c4.8-1.7 15.3-5.6 23.3-8.7 8-3.1 21.3-8.1 29.5-11.1 30-10.9 62.2-22.6 72.5-26.4 5.8-2.1 14.6-5.3 19.5-7.1 5-1.7 13.1-4.7 18-6.6 5-1.9 16.4-6.1 25.5-9.3 9.1-3.2 19.7-7.1 23.5-8.5 3.9-1.5 16.4-6 27.9-10.1 20.3-7.1 25.2-9.5 24.2-11.9-.2-.7.4-2.5 1.4-4 2.2-3.4 2.6-17.3.6-20.1-.7-.9-5.1-2.8-9.7-4.1-14.5-4.2-21-9.5-24.9-20.3-2.9-8-3.2-8.3-9.2-10.5-6.7-2.4-8.4-3.8-10.8-8.6-1.8-3.4-3.4-4.4-8.8-5.5-1.9-.4-4.2-2.5-3.7-3.4.3-.4.7-15.9.9-34.4.3-18.5.7-34 .9-34.4.4-.6 1.1-21.9 2.2-66.2.3-9.1.8-28 1.1-42 .8-27.6.7-34-.2-41.3-.4-2.8-.2-5.3.4-6 1.5-1.8 1.5-22.7 0-24.5-.7-.8-1.4-6.2-1.6-12.6-.4-9.6-.2-11.5 1.3-12.9 3.5-3.6-.8-16.5-5.8-17.3-.7-.1-6.1-1.3-12.2-2.7-6-1.4-12.6-2.8-14.5-3.2-1.9-.3-4.6-.8-6-1.1-1.4-.2-3.2-.5-4-.5-.8-.1-3.3-.6-5.5-1.2s-4.7-1.2-5.5-1.3c-.8-.1-4-.7-7-1.4-3-.6-6.4-1.3-7.5-1.5-1.1-.2-3.1-.6-4.5-.9-1.4-.4-4-.9-5.9-1.2-1.8-.3-4.1-.7-5-1-3.7-.9-35.8-7.5-38.1-7.8-1.4-.2-3.6-.8-5-1.4-3-1.1-10.8-2.4-17.2-2.7-2.6-.1-5.4-.7-6.1-1.4-1.5-1.2-5.8-2.2-24.2-5.6-1.6-.3-4.3-.8-6-1.2-4.5-1-5.5-1.1-12-1.7-11.6-1.2-13.2-1.2-15.9-.5z"/></svg>