<svg version="1" xmlns="http://www.w3.org/2000/svg" width="1440" height="1440" viewBox="0 0 1080.000000 1080.000000"><path d="M0 540v540h1080V0H0v540zm1048 0v508H32V32h1016v508z"/><path d="M793.5 496.1C709 504 649.9 548.9 638.5 614c-2.3 12.7-2.3 36.2 0 49.5 7.1 41.5 28.8 68.8 72 90.3 21.7 10.9 42.5 18.3 76.5 27.2 64 16.8 89.1 25.6 103.8 36.4 11.4 8.5 15.9 17.9 14.9 31.3-1.6 21-17.8 35.1-47.7 41.6-8 1.8-13.1 2.1-33 2.1-25.1.1-32.9-.9-46.7-5.9-18.6-6.7-35.1-22.6-40.2-38.5-1.6-5.1-9-13.1-15.2-16.5l-5.4-3-36-.3c-25.4-.2-37.2 0-40.2.9-5.5 1.5-11.6 6.8-14.4 12.5-2 4.2-2.1 5.6-1.6 15.8.4 7.2 1.5 14.4 3.2 20.6 15.8 57.9 70.6 97.4 150.5 108.7 18.1 2.6 71.4 2.6 88.5 0 44.2-6.6 79-20.4 105.1-41.8 34.4-28.1 51-69.1 47.4-116.8-3.9-50.8-29-82.8-83-105.9-16.2-7-44.9-16.1-69.5-22.2-63-15.5-93-26.6-106-39.4-5.4-5.3-6.6-7.1-8.4-13-2.5-8.1-2.7-15-.6-23.1 4.2-16.3 18.6-26.7 43.5-31.6 10.1-2 35.8-1.7 46 .5 23.3 4.9 43.1 19.4 46.9 34.2.7 2.7 1.9 6.4 2.7 8.2 2.2 5.1 9 11.8 14.7 14.3 5.2 2.4 5.4 2.4 42.7 2.4 43.1 0 43.9-.1 51-8.2 5-5.7 6.4-10.7 5.7-20.3-2-24.7-16.1-52.6-37.6-74-27.6-27.4-65.7-45.6-109.4-52.1-15.5-2.3-50-3.3-65.2-1.8zM274.9 503.4c-6.5 2.3-11.6 7.3-14.4 14-1.2 2.8-1.5 9.3-1.5 32.9 0 33.9.4 36 7.5 42.6 8.3 7.6-.9 7.1 121.6 7.1H498v105c0 67.7-.4 108.5-1.1 114.6-4.6 41.9-24.9 66.7-59.3 72.5-9 1.5-32 .6-40.6-1.6-3.6-.9-10.8-3.7-16-6.2-17.7-8.5-28.4-22.9-33-44.4-2.5-11.4-7-21-11.4-24.4-7-5.3-8.7-5.5-50.5-5.5-43.5 0-43.3 0-50.2 7.7-5.5 6-6.3 9.6-5.6 24.2 2.7 53.7 33 98.7 83.6 124.1 22.5 11.3 46.3 18.1 75.1 21.5 15.8 1.9 45.7 1.9 62 .1 86.2-9.8 144-61.9 158-142.5 3.6-20.7 4.1-45.3 3.8-187.6-.3-127.9-.4-136.2-2.1-139.9-2.9-6.5-6.3-10.2-11.9-13l-5.2-2.6H436.1c-126.9.1-158.3.3-161.2 1.4z"/></svg>